# Blender 4.2.3 LTS
# www.blender.org
mtllib rotor.mtl
o blade.1.1
v -0.493485 -0.935427 1.000000
v -0.493485 -0.935427 0.000000
v -0.935427 -0.493485 0.000000
v -0.935427 -0.493485 1.000000
v -0.979621 -0.626068 0.000000
v -0.979621 -0.626067 1.000000
v -0.626068 -0.979621 0.000000
v -0.626068 -0.979621 1.000000
vn 0.7071 0.7071 -0.0000
vn -0.9487 0.3162 -0.0000
vn -0.7071 -0.7071 -0.0000
vn 0.3162 -0.9487 -0.0000
vn -0.0000 -0.0000 -1.0000
vn -0.0000 -0.0000 1.0000
vt 0.695312 0.617188
vt 0.820312 0.617188
vt 0.820312 0.695312
vt 0.695312 0.695312
vt 0.187500 0.968750
vt 0.062500 0.968750
vt 0.062500 0.953125
vt 0.187500 0.953125
vt 0.203125 0.703125
vt 0.078125 0.703125
vt 0.078125 0.640625
vt 0.203125 0.640625
vt 0.078125 0.968750
vt 0.203125 0.968750
vt 0.203125 0.984375
vt 0.078125 0.984375
vt 0.203125 0.992188
vt 0.210938 0.976562
vt 0.273437 0.976562
vt 0.281250 0.992188
vt 0.031250 0.867188
vt 0.046875 0.859376
vt 0.046875 0.937500
vt 0.031250 0.929688
s 0
o blade.1.2
v 1.935427 -0.493485 1.000000
v 1.935427 -0.493485 0.000000
v 1.493485 -0.935427 0.000000
v 1.493485 -0.935427 1.000000
v 1.626068 -0.979621 0.000000
v 1.626068 -0.979621 1.000000
v 1.979621 -0.626068 0.000000
v 1.979621 -0.626067 1.000000
vn -0.7071 0.7071 -0.0000
vn -0.3162 -0.9487 -0.0000
vn 0.7071 -0.7071 -0.0000
vn 0.9487 0.3162 -0.0000
vn -0.0000 -0.0000 -1.0000
vn -0.0000 -0.0000 1.0000
vt 0.820312 0.539062
vt 0.695312 0.539062
vt 0.695312 0.460938
vt 0.820312 0.460938
vt 0.484375 0.375000
vt 0.359375 0.375000
vt 0.359375 0.359375
vt 0.484375 0.359375
vt 0.695312 0.398438
vt 0.820312 0.398438
vt 0.343750 0.375000
vt 0.468750 0.375000
vt 0.468750 0.390625
vt 0.343750 0.390625
vt 0.281250 0.796875
vt 0.265625 0.789063
vt 0.265625 0.726563
vt 0.281250 0.718751
vt 0.351562 0.914062
vt 0.359375 0.929688
vt 0.281250 0.929688
vt 0.289063 0.914062
s 0
o blade.1.3
v 1.493485 1.935427 1.000000
v 1.493485 1.935427 -0.000000
v 1.935427 1.493485 -0.000000
v 1.935427 1.493485 1.000000
v 1.979621 1.626068 -0.000000
v 1.979621 1.626068 1.000000
v 1.626068 1.979621 -0.000000
v 1.626068 1.979621 1.000000
vn -0.7071 -0.7071 -0.0000
vn 0.9487 -0.3162 -0.0000
vn 0.7071 0.7071 -0.0000
vn -0.3162 0.9487 -0.0000
vn -0.0000 -0.0000 -1.0000
vn -0.0000 -0.0000 1.0000
vt 0.820312 0.617188
vt 0.695312 0.617188
vt 0.695312 0.539062
vt 0.820312 0.539062
vt 0.203125 0.671875
vt 0.328125 0.671875
vt 0.328125 0.687500
vt 0.203125 0.687500
vt 0.500000 0.242188
vt 0.625000 0.242188
vt 0.625000 0.304688
vt 0.500000 0.304688
vt 0.453125 0.406250
vt 0.328125 0.406250
vt 0.328125 0.390625
vt 0.453125 0.390625
vt 0.328125 0.796875
vt 0.320312 0.812500
vt 0.257813 0.812500
vt 0.250000 0.796875
vt 0.265625 0.789063
vt 0.250000 0.796875
vt 0.250000 0.718751
vt 0.265625 0.726563
s 0
o blade.1.4
v -0.935427 1.493485 1.000000
v -0.935427 1.493485 -0.000000
v -0.493485 1.935427 -0.000000
v -0.493485 1.935427 1.000000
v -0.626068 1.979621 -0.000000
v -0.626068 1.979621 1.000000
v -0.979621 1.626068 -0.000000
v -0.979621 1.626068 1.000000
vn 0.7071 -0.7071 -0.0000
vn 0.3162 0.9487 -0.0000
vn -0.7071 0.7071 -0.0000
vn -0.9487 -0.3162 -0.0000
vn -0.0000 -0.0000 -1.0000
vn -0.0000 -0.0000 1.0000
vt 0.375000 0.226562
vt 0.500000 0.226562
vt 0.500000 0.304688
vt 0.375000 0.304688
vt 0.203125 0.687500
vt 0.328125 0.687500
vt 0.328125 0.703125
vt 0.203125 0.703125
vt 0.507812 0.750000
vt 0.382812 0.750000
vt 0.382812 0.687500
vt 0.507812 0.687500
vt 0.312500 0.968750
vt 0.187500 0.968750
vt 0.187500 0.953125
vt 0.312500 0.953125
vt 0.015625 0.843751
vt 0.031250 0.851563
vt 0.031250 0.914063
vt 0.015625 0.921875
vt 0.257813 0.828125
vt 0.250000 0.812500
vt 0.328125 0.812500
vt 0.320312 0.828125
s 0
o blade.8
v 0.582816 0.900000 0.802943
v 0.358836 0.900000 0.219455
v 0.417184 0.900000 0.197057
v 0.641164 0.900000 0.780545
v 0.417184 1.758959 0.197057
v 0.641164 1.936611 0.780545
v 0.358836 1.758959 0.219455
v 0.582816 1.936611 0.802943
vn -0.0000 -1.0000 -0.0000
vn 0.9336 -0.0000 -0.3584
vn -0.0980 0.9619 -0.2553
vn -0.9336 -0.0000 0.3584
vn -0.3584 -0.0000 -0.9336
vn 0.3584 -0.0000 0.9336
vt 0.218750 0.718750
vt 0.062500 0.718750
vt 0.062500 0.703125
vt 0.218750 0.703125
vt 0.000000 0.734375
vt 0.156250 0.734375
vt 0.156250 0.955586
vt 0.000000 1.000000
vt 0.234375 0.718750
vt 0.234375 0.562500
vt 0.250000 0.562500
vt 0.250000 0.718750
vt 0.328125 1.000000
vt 0.171875 0.955586
vt 0.171875 0.734375
vt 0.328125 0.734375
vt 0.046875 0.500000
vt 0.046875 0.718750
vt 0.031250 0.718750
vt 0.031250 0.500000
vt 0.000000 0.718750
vt 0.000000 0.453125
vt 0.015625 0.453125
vt 0.015625 0.718750
s 0
usemtl blade
f 33/95/25 34/96/25 35/97/25 36/98/25
f 36/99/26 35/100/26 37/101/26 38/102/26
f 38/103/27 37/104/27 39/105/27 40/106/27
f 40/107/28 39/108/28 34/109/28 33/110/28
f 34/111/29 39/112/29 37/113/29 35/114/29
f 40/115/30 33/116/30 36/117/30 38/118/30
o blade.001
v 0.841402 0.724283 0.802943
v 0.683024 0.882661 0.219455
v 0.724283 0.841402 0.197057
v 0.882661 0.683024 0.780545
v 1.331659 1.448778 0.197057
v 1.615655 1.416019 0.780545
v 1.290400 1.490037 0.219455
v 1.574397 1.457278 0.802943
vn -0.7071 -0.7071 -0.0000
vn 0.6601 -0.6601 -0.3584
vn 0.6109 0.7494 -0.2553
vn -0.6601 0.6601 0.3584
vn -0.2534 0.2534 -0.9336
vn 0.2534 -0.2534 0.9336
vt 0.218750 0.718750
vt 0.062500 0.718750
vt 0.062500 0.703125
vt 0.218750 0.703125
vt 0.000000 0.734375
vt 0.156250 0.734375
vt 0.156250 0.955586
vt 0.000000 1.000000
vt 0.234375 0.718750
vt 0.234375 0.562500
vt 0.250000 0.562500
vt 0.250000 0.718750
vt 0.328125 1.000000
vt 0.171875 0.955586
vt 0.171875 0.734375
vt 0.328125 0.734375
vt 0.046875 0.500000
vt 0.046875 0.718750
vt 0.031250 0.718750
vt 0.031250 0.500000
vt 0.000000 0.718750
vt 0.000000 0.453125
vt 0.015625 0.453125
vt 0.015625 0.718750
s 0
usemtl blade
f 41/119/31 42/120/31 43/121/31 44/122/31
f 44/123/32 43/124/32 45/125/32 46/126/32
f 46/127/33 45/128/33 47/129/33 48/130/33
f 48/131/34 47/132/34 42/133/34 41/134/34
f 42/135/35 47/136/35 45/137/35 43/138/35
f 48/139/36 41/140/36 44/141/36 46/142/36
o blade.002
v 0.275717 0.841402 0.802943
v 0.117339 0.683024 0.219455
v 0.158598 0.724283 0.197057
v 0.316976 0.882661 0.780545
v -0.448778 1.331659 0.197057
v -0.416019 1.615655 0.780545
v -0.490037 1.290400 0.219455
v -0.457278 1.574397 0.802943
vn 0.7071 -0.7071 -0.0000
vn 0.6601 0.6601 -0.3584
vn -0.7494 0.6109 -0.2553
vn -0.6601 -0.6601 0.3584
vn -0.2534 -0.2534 -0.9336
vn 0.2534 0.2534 0.9336
vt 0.218750 0.718750
vt 0.062500 0.718750
vt 0.062500 0.703125
vt 0.218750 0.703125
vt 0.000000 0.734375
vt 0.156250 0.734375
vt 0.156250 0.955586
vt 0.000000 1.000000
vt 0.234375 0.718750
vt 0.234375 0.562500
vt 0.250000 0.562500
vt 0.250000 0.718750
vt 0.328125 1.000000
vt 0.171875 0.955586
vt 0.171875 0.734375
vt 0.328125 0.734375
vt 0.046875 0.500000
vt 0.046875 0.718750
vt 0.031250 0.718750
vt 0.031250 0.500000
vt 0.000000 0.718750
vt 0.000000 0.453125
vt 0.015625 0.453125
vt 0.015625 0.718750
s 0
usemtl blade
f 49/143/37 50/144/37 51/145/37 52/146/37
f 52/147/38 51/148/38 53/149/38 54/150/38
f 54/151/39 53/152/39 55/153/39 56/154/39
f 56/155/40 55/156/40 50/157/40 49/158/40
f 50/159/41 55/160/41 53/161/41 51/162/41
f 56/163/42 49/164/42 52/165/42 54/166/42
o blade.003
v 0.100000 0.582816 0.802943
v 0.100000 0.358836 0.219455
v 0.100000 0.417184 0.197057
v 0.100000 0.641164 0.780545
v -0.758959 0.417184 0.197057
v -0.936611 0.641164 0.780545
v -0.758959 0.358836 0.219455
v -0.936611 0.582816 0.802943
vn 1.0000 -0.0000 -0.0000
vn -0.0000 0.9336 -0.3584
vn -0.9619 -0.0980 -0.2553
vn -0.0000 -0.9336 0.3584
vn -0.0000 -0.3584 -0.9336
vn -0.0000 0.3584 0.9336
vt 0.218750 0.718750
vt 0.062500 0.718750
vt 0.062500 0.703125
vt 0.218750 0.703125
vt 0.000000 0.734375
vt 0.156250 0.734375
vt 0.156250 0.955586
vt 0.000000 1.000000
vt 0.234375 0.718750
vt 0.234375 0.562500
vt 0.250000 0.562500
vt 0.250000 0.718750
vt 0.328125 1.000000
vt 0.171875 0.955586
vt 0.171875 0.734375
vt 0.328125 0.734375
vt 0.046875 0.500000
vt 0.046875 0.718750
vt 0.031250 0.718750
vt 0.031250 0.500000
vt 0.000000 0.718750
vt 0.000000 0.453125
vt 0.015625 0.453125
vt 0.015625 0.718750
s 0
usemtl blade
f 57/167/43 58/168/43 59/169/43 60/170/43
f 60/171/44 59/172/44 61/173/44 62/174/44
f 62/175/45 61/176/45 63/177/45 64/178/45
f 64/179/46 63/180/46 58/181/46 57/182/46
f 58/183/47 63/184/47 61/185/47 59/186/47
f 64/187/48 57/188/48 60/189/48 62/190/48
o blade.004
v 0.417184 0.100000 0.802943
v 0.641164 0.100000 0.219455
v 0.582816 0.100000 0.197057
v 0.358836 0.100000 0.780545
v 0.582816 -0.758959 0.197057
v 0.358836 -0.936611 0.780545
v 0.641164 -0.758959 0.219455
v 0.417184 -0.936611 0.802943
vn -0.0000 1.0000 -0.0000
vn -0.9336 -0.0000 -0.3584
vn 0.0980 -0.9619 -0.2553
vn 0.9336 -0.0000 0.3584
vn 0.3584 -0.0000 -0.9336
vn -0.3584 -0.0000 0.9336
vt 0.218750 0.718750
vt 0.062500 0.718750
vt 0.062500 0.703125
vt 0.218750 0.703125
vt 0.000000 0.734375
vt 0.156250 0.734375
vt 0.156250 0.955586
vt 0.000000 1.000000
vt 0.234375 0.718750
vt 0.234375 0.562500
vt 0.250000 0.562500
vt 0.250000 0.718750
vt 0.328125 1.000000
vt 0.171875 0.955586
vt 0.171875 0.734375
vt 0.328125 0.734375
vt 0.046875 0.500000
vt 0.046875 0.718750
vt 0.031250 0.718750
vt 0.031250 0.500000
vt 0.000000 0.718750
vt 0.000000 0.453125
vt 0.015625 0.453125
vt 0.015625 0.718750
s 0
usemtl blade
f 65/191/49 66/192/49 67/193/49 68/194/49
f 68/195/50 67/196/50 69/197/50 70/198/50
f 70/199/51 69/200/51 71/201/51 72/202/51
f 72/203/52 71/204/52 66/205/52 65/206/52
f 66/207/53 71/208/53 69/209/53 67/210/53
f 72/211/54 65/212/54 68/213/54 70/214/54
o blade.005
v 0.900000 0.417184 0.802943
v 0.900000 0.641164 0.219455
v 0.900000 0.582816 0.197057
v 0.900000 0.358836 0.780545
v 1.758959 0.582816 0.197057
v 1.936611 0.358836 0.780545
v 1.758959 0.641164 0.219455
v 1.936611 0.417184 0.802943
vn -1.0000 -0.0000 -0.0000
vn -0.0000 -0.9336 -0.3584
vn 0.9619 0.0980 -0.2553
vn -0.0000 0.9336 0.3584
vn -0.0000 0.3584 -0.9336
vn -0.0000 -0.3584 0.9336
vt 0.218750 0.718750
vt 0.062500 0.718750
vt 0.062500 0.703125
vt 0.218750 0.703125
vt 0.000000 0.734375
vt 0.156250 0.734375
vt 0.156250 0.955586
vt 0.000000 1.000000
vt 0.234375 0.718750
vt 0.234375 0.562500
vt 0.250000 0.562500
vt 0.250000 0.718750
vt 0.328125 1.000000
vt 0.171875 0.955586
vt 0.171875 0.734375
vt 0.328125 0.734375
vt 0.046875 0.500000
vt 0.046875 0.718750
vt 0.031250 0.718750
vt 0.031250 0.500000
vt 0.000000 0.718750
vt 0.000000 0.453125
vt 0.015625 0.453125
vt 0.015625 0.718750
s 0
usemtl blade
f 73/215/55 74/216/55 75/217/55 76/218/55
f 76/219/56 75/220/56 77/221/56 78/222/56
f 78/223/57 77/224/57 79/225/57 80/226/57
f 80/227/58 79/228/58 74/229/58 73/230/58
f 74/231/59 79/232/59 77/233/59 75/234/59
f 80/235/60 73/236/60 76/237/60 78/238/60
o blade.006
v 0.158598 0.275717 0.802943
v 0.316976 0.117339 0.219455
v 0.275717 0.158598 0.197057
v 0.117339 0.316976 0.780545
v -0.331659 -0.448778 0.197057
v -0.615655 -0.416019 0.780545
v -0.290400 -0.490037 0.219455
v -0.574397 -0.457278 0.802943
vn 0.7071 0.7071 -0.0000
vn -0.6601 0.6601 -0.3584
vn -0.6109 -0.7494 -0.2553
vn 0.6601 -0.6601 0.3584
vn 0.2534 -0.2534 -0.9336
vn -0.2534 0.2534 0.9336
vt 0.218750 0.718750
vt 0.062500 0.718750
vt 0.062500 0.703125
vt 0.218750 0.703125
vt 0.000000 0.734375
vt 0.156250 0.734375
vt 0.156250 0.955586
vt 0.000000 1.000000
vt 0.234375 0.718750
vt 0.234375 0.562500
vt 0.250000 0.562500
vt 0.250000 0.718750
vt 0.328125 1.000000
vt 0.171875 0.955586
vt 0.171875 0.734375
vt 0.328125 0.734375
vt 0.046875 0.500000
vt 0.046875 0.718750
vt 0.031250 0.718750
vt 0.031250 0.500000
vt 0.000000 0.718750
vt 0.000000 0.453125
vt 0.015625 0.453125
vt 0.015625 0.718750
s 0
usemtl blade
f 81/239/61 82/240/61 83/241/61 84/242/61
f 84/243/62 83/244/62 85/245/62 86/246/62
f 86/247/63 85/248/63 87/249/63 88/250/63
f 88/251/64 87/252/64 82/253/64 81/254/64
f 82/255/65 87/256/65 85/257/65 83/258/65
f 88/259/66 81/260/66 84/261/66 86/262/66
o blade.007
v 0.724283 0.158598 0.802943
v 0.882661 0.316976 0.219455
v 0.841402 0.275717 0.197057
v 0.683024 0.117339 0.780545
v 1.448778 -0.331659 0.197057
v 1.416019 -0.615655 0.780545
v 1.490037 -0.290400 0.219455
v 1.457278 -0.574397 0.802943
vn -0.7071 0.7071 -0.0000
vn -0.6601 -0.6601 -0.3584
vn 0.7494 -0.6109 -0.2553
vn 0.6601 0.6601 0.3584
vn 0.2534 0.2534 -0.9336
vn -0.2534 -0.2534 0.9336
vt 0.218750 0.718750
vt 0.062500 0.718750
vt 0.062500 0.703125
vt 0.218750 0.703125
vt 0.000000 0.734375
vt 0.156250 0.734375
vt 0.156250 0.955586
vt 0.000000 1.000000
vt 0.234375 0.718750
vt 0.234375 0.562500
vt 0.250000 0.562500
vt 0.250000 0.718750
vt 0.328125 1.000000
vt 0.171875 0.955586
vt 0.171875 0.734375
vt 0.328125 0.734375
vt 0.046875 0.500000
vt 0.046875 0.718750
vt 0.031250 0.718750
vt 0.031250 0.500000
vt 0.000000 0.718750
vt 0.000000 0.453125
vt 0.015625 0.453125
vt 0.015625 0.718750
s 0
usemtl blade
f 89/263/67 90/264/67 91/265/67 92/266/67
f 92/267/68 91/268/68 93/269/68 94/270/68
f 94/271/69 93/272/69 95/273/69 96/274/69
f 96/275/70 95/276/70 90/277/70 89/278/70
f 90/279/71 95/280/71 93/281/71 91/282/71
f 96/283/72 89/284/72 92/285/72 94/286/72
o Cylinder.1
v 0.500000 0.500000 0.125000
v 0.904198 0.667424 0.125000
v 0.904198 0.332576 0.125000
v 0.904198 0.667424 0.875000
v 0.904198 0.332576 0.875000
v 0.500000 0.500000 0.875000
v 0.667424 0.095803 0.125000
v 0.667424 0.095803 0.875000
v 0.332576 0.095803 0.125000
v 0.332576 0.095803 0.875000
v 0.095803 0.332576 0.125000
v 0.095803 0.332576 0.875000
v 0.095803 0.667424 0.125000
v 0.095803 0.667424 0.875000
v 0.332576 0.904198 0.125000
v 0.332576 0.904198 0.875000
v 0.667424 0.904198 0.125000
v 0.667424 0.904198 0.875000
vn -0.0000 -0.0000 -1.0000
vn 1.0000 -0.0000 -0.0000
vn -0.0000 -0.0000 1.0000
vn 0.7071 -0.7071 -0.0000
vn -0.0000 -1.0000 -0.0000
vn -0.7071 -0.7071 -0.0000
vn -1.0000 -0.0000 -0.0000
vn -0.7071 0.7071 -0.0000
vn -0.0000 1.0000 -0.0000
vn 0.7071 0.7071 -0.0000
vt 0.203376 0.941015
vt 0.143911 1.000479
vt 0.101864 0.898967
vt 0.562500 0.531250
vt 0.375000 0.531250
vt 0.375000 0.453125
vt 0.562500 0.453125
vt 0.358580 0.767886
vt 0.257170 0.726025
vt 0.358580 0.684164
vt 0.299175 0.624964
vt 0.734375 0.687500
vt 0.546875 0.687500
vt 0.546875 0.609375
vt 0.734375 0.609375
vt 0.059816 1.000479
vt 0.215164 0.624964
vt 0.562500 0.687500
vt 0.562500 0.875000
vt 0.484375 0.875000
vt 0.484375 0.687500
vt 0.000351 0.941015
vt 0.155759 0.684164
vt 0.546875 0.531250
vt 0.734375 0.531250
vt 0.000351 0.856919
vt 0.155759 0.767886
vt 0.000000 0.390625
vt 0.187500 0.390625
vt 0.187500 0.468750
vt 0.000000 0.468750
vt 0.059816 0.797455
vt 0.215164 0.827086
vt 0.453125 0.375000
vt 0.640625 0.375000
vt 0.640625 0.453125
vt 0.453125 0.453125
vt 0.143911 0.797455
vt 0.299175 0.827086
vt 0.375000 0.265625
vt 0.453125 0.265625
vt 0.203376 0.856919
vt 0.750000 0.875000
vt 0.562500 0.796875
vt 0.750000 0.796875
s 0
usemtl core
f 98/287/73 99/288/73 97/289/73
f 98/290/74 100/291/74 101/292/74 99/293/74
f 114/294/75 102/295/75 100/296/75
f 102/295/75 101/297/75 100/296/75
f 99/298/76 101/299/76 104/300/76 103/301/76
f 99/288/73 103/302/73 97/289/73
f 102/295/75 104/303/75 101/297/75
f 103/304/77 104/305/77 106/306/77 105/307/77
f 97/289/73 103/302/73 105/308/73
f 102/295/75 106/309/75 104/303/75
f 105/310/78 106/311/78 108/301/78 107/300/78
f 97/289/73 105/308/73 107/312/73
f 108/313/75 106/309/75 102/295/75
f 107/314/79 108/315/79 110/316/79 109/317/79
f 97/289/73 107/312/73 109/318/73
f 110/319/75 108/313/75 102/295/75
f 109/320/80 110/321/80 112/322/80 111/323/80
f 111/324/73 97/289/73 109/318/73
f 112/325/75 110/319/75 102/295/75
f 111/292/81 112/326/81 114/327/81 113/323/81
f 113/328/73 97/289/73 111/324/73
f 112/325/75 102/295/75 114/294/75
f 113/329/82 114/305/82 100/330/82 98/331/82
f 113/328/73 98/287/73 97/289/73
o shaft
v 0.375000 0.375000 -0.000000
v 0.375000 0.625000 -0.000000
v 0.625000 0.625000 -0.000000
v 0.625000 0.375000 -0.000000
v 0.625000 0.625000 1.000000
v 0.625000 0.375000 1.000000
v 0.375000 0.625000 1.000000
v 0.375000 0.375000 1.000000
vn -0.0000 -0.0000 -1.0000
vn 1.0000 -0.0000 -0.0000
vn -0.0000 -0.0000 1.0000
vn -1.0000 -0.0000 -0.0000
vn -0.0000 1.0000 -0.0000
vn -0.0000 -1.0000 -0.0000
vt 0.250000 0.437500
vt 0.250000 0.500000
vt 0.187500 0.500000
vt 0.187500 0.437500
vt 0.656250 0.937500
vt 0.656250 1.000000
vt 0.406250 1.000000
vt 0.406250 0.937500
vt 0.250000 0.375000
vt 0.187500 0.375000
vt 0.656250 0.875000
vt 0.406250 0.875000
vt 0.250000 0.625000
vt 0.312500 0.375000
vt 0.312500 0.625000
vt 0.312500 0.531250
vt 0.312500 0.281250
vt 0.375000 0.281250
vt 0.375000 0.531250
s 0
usemtl core
f 115/332/83 116/333/83 117/334/83 118/335/83
f 118/336/84 117/337/84 119/338/84 120/339/84
f 120/340/85 119/332/85 121/335/85 122/341/85
f 122/342/86 121/336/86 116/339/86 115/343/86
f 116/344/87 121/340/87 119/345/87 117/346/87
f 122/347/88 115/348/88 118/349/88 120/350/88
o shaft.1
v 0.250000 0.250000 0.093750
v 0.250000 0.750000 0.093750
v 0.750000 0.750000 0.093750
v 0.750000 0.250000 0.093750
v 0.750000 0.750000 0.906250
v 0.750000 0.250000 0.906250
v 0.250000 0.750000 0.906250
v 0.250000 0.250000 0.906250
vn -0.0000 -0.0000 -1.0000
vn 1.0000 -0.0000 -0.0000
vn -0.0000 -0.0000 1.0000
vn -1.0000 -0.0000 -0.0000
vn -0.0000 1.0000 -0.0000
vn -0.0000 -1.0000 -0.0000
vt 0.250000 0.500000
vt 0.250000 0.625000
vt 0.125000 0.625000
vt 0.125000 0.500000
vt 0.406250 0.875000
vt 0.406250 1.000000
vt 0.203125 1.000000
vt 0.203125 0.875000
vt 0.125000 0.468750
vt 0.125000 0.593750
vt 0.000000 0.593750
vt 0.000000 0.468750
vt 0.546875 0.531250
vt 0.546875 0.656250
vt 0.343750 0.656250
vt 0.343750 0.531250
vt 0.000000 0.796875
vt 0.125000 0.796875
vt 0.359375 0.875000
vt 0.359375 0.671875
vt 0.484375 0.671875
vt 0.484375 0.875000
s 0
usemtl core
f 123/351/89 124/352/89 125/353/89 126/354/89
f 126/355/90 125/356/90 127/357/90 128/358/90
f 128/359/91 127/360/91 129/361/91 130/362/91
f 130/363/92 129/364/92 124/365/92 123/366/92
f 124/367/93 129/361/93 127/360/93 125/368/93
f 130/369/94 123/370/94 126/371/94 128/372/94
o Tube.1
v 1.943562 -0.396914 0.000000
v 2.001304 -0.432791 0.000000
v 1.432791 -1.001304 0.000000
v 1.396914 -0.943562 0.000000
v 2.001304 -0.432791 0.125000
v 1.432791 -1.001304 0.125000
v 2.001304 -0.432791 0.500000
v 1.432791 -1.001304 0.500000
v 2.001304 -0.432791 0.875000
v 1.432791 -1.001304 0.875000
v 2.001304 -0.432791 1.000000
v 1.432791 -1.001304 1.000000
v 1.943562 -0.396914 1.000000
v 1.396914 -0.943562 1.000000
v 1.943562 -0.396914 0.875000
v 1.396914 -0.943562 0.875000
v 1.943562 -0.396914 0.500000
v 1.396914 -0.943562 0.500000
v 1.943562 -0.396914 0.125000
v 1.396914 -0.943562 0.125000
v -0.432791 -1.001304 0.000000
v -0.396914 -0.943562 0.000000
v -0.432791 -1.001304 0.125000
v -0.432791 -1.001304 0.500000
v -0.432791 -1.001304 0.875000
v -0.432791 -1.001304 1.000000
v -0.396914 -0.943562 1.000000
v -0.396914 -0.943562 0.875000
v -0.396914 -0.943562 0.500000
v -0.396914 -0.943562 0.125000
v -1.001304 -0.432791 0.000000
v -0.943562 -0.396914 0.000000
v -1.001304 -0.432791 0.125000
v -1.001304 -0.432791 0.500000
v -1.001304 -0.432791 0.875000
v -1.001304 -0.432791 1.000000
v -0.943562 -0.396914 1.000000
v -0.943562 -0.396914 0.875000
v -0.943562 -0.396914 0.500000
v -0.943562 -0.396914 0.125000
v -1.001304 1.432791 -0.000000
v -0.943562 1.396914 -0.000000
v -1.001304 1.432791 0.125000
v -1.001304 1.432791 0.500000
v -1.001304 1.432791 0.875000
v -1.001304 1.432791 1.000000
v -0.943562 1.396914 1.000000
v -0.943562 1.396914 0.875000
v -0.943562 1.396914 0.500000
v -0.943562 1.396914 0.125000
v -0.432791 2.001304 -0.000000
v -0.396914 1.943562 -0.000000
v -0.432791 2.001304 0.125000
v -0.432791 2.001304 0.500000
v -0.432791 2.001304 0.875000
v -0.432791 2.001304 1.000000
v -0.396914 1.943562 1.000000
v -0.396914 1.943562 0.875000
v -0.396914 1.943562 0.500000
v -0.396914 1.943562 0.125000
v 1.432791 2.001304 -0.000000
v 1.396914 1.943562 -0.000000
v 1.432791 2.001304 0.125000
v 1.432791 2.001304 0.500000
v 1.432791 2.001304 0.875000
v 1.432791 2.001304 1.000000
v 1.396914 1.943562 1.000000
v 1.396914 1.943562 0.875000
v 1.396914 1.943562 0.500000
v 1.396914 1.943562 0.125000
v 2.001304 1.432791 -0.000000
v 1.943562 1.396914 -0.000000
v 2.001304 1.432791 0.125000
v 2.001304 1.432791 0.500000
v 2.001304 1.432791 0.875000
v 2.001304 1.432791 1.000000
v 1.943562 1.396914 1.000000
v 1.943562 1.396914 0.875000
v 1.943562 1.396914 0.500000
v 1.943562 1.396914 0.125000
vn -0.0000 -0.0000 -1.0000
vn 0.7071 -0.7071 -0.0000
vn -0.0000 -0.0000 1.0000
vn -0.7071 0.7071 -0.0000
vn -0.0000 -1.0000 -0.0000
vn -0.0000 1.0000 -0.0000
vn -0.7071 -0.7071 -0.0000
vn 0.7071 0.7071 -0.0000
vn -1.0000 -0.0000 -0.0000
vn 1.0000 -0.0000 -0.0000
vt 0.010961 0.700223
vt 0.003743 0.695737
vt 0.074807 0.624673
vt 0.079292 0.631891
vt 0.609375 0.452062
vt 0.593750 0.452062
vt 0.593750 0.351562
vt 0.609375 0.351562
vt 0.546875 0.452062
vt 0.546875 0.351562
vt 0.500000 0.452062
vt 0.500000 0.351562
vt 0.484375 0.452062
vt 0.484375 0.351562
vt 0.691570 0.383238
vt 0.684352 0.387723
vt 0.616020 0.319391
vt 0.620505 0.312173
vt 0.734375 0.796875
vt 0.718750 0.796875
vt 0.718750 0.700241
vt 0.734375 0.700241
vt 0.671875 0.796875
vt 0.671875 0.700241
vt 0.625000 0.796875
vt 0.625000 0.700241
vt 0.609375 0.796875
vt 0.609375 0.700241
vt 0.308005 0.624673
vt 0.303520 0.631891
vt 0.280662 0.828125
vt 0.280662 0.843750
vt 0.047464 0.843750
vt 0.047464 0.828125
vt 0.280662 0.890625
vt 0.047464 0.890625
vt 0.280662 0.937500
vt 0.047464 0.937500
vt 0.280661 0.953125
vt 0.047463 0.953125
vt 0.391792 0.319391
vt 0.387308 0.312173
vt 0.608208 0.875000
vt 0.608208 0.890625
vt 0.383980 0.890625
vt 0.383980 0.875000
vt 0.608208 0.937500
vt 0.383980 0.937500
vt 0.608208 0.984375
vt 0.383980 0.984375
vt 0.608208 1.000000
vt 0.383980 1.000000
vt 0.379070 0.695737
vt 0.371852 0.700223
vt 0.625000 0.897375
vt 0.609375 0.897375
vt 0.671875 0.897375
vt 0.718750 0.897375
vt 0.734375 0.897375
vt 0.323461 0.387723
vt 0.316243 0.383238
vt 0.000000 0.286178
vt 0.015625 0.286178
vt 0.015625 0.382812
vt 0.000000 0.382812
vt 0.062500 0.286178
vt 0.062500 0.382812
vt 0.109375 0.286178
vt 0.109375 0.382812
vt 0.125000 0.286178
vt 0.125000 0.382812
vt 0.379070 0.928935
vt 0.371852 0.924451
vt 0.359375 0.407427
vt 0.375000 0.407427
vt 0.375000 0.640625
vt 0.359375 0.640625
vt 0.421875 0.407427
vt 0.421875 0.640625
vt 0.468750 0.407427
vt 0.468750 0.640625
vt 0.484375 0.407427
vt 0.484375 0.640625
vt 0.323461 0.611951
vt 0.316243 0.616435
vt 0.125000 0.392959
vt 0.140625 0.392959
vt 0.140625 0.617188
vt 0.125000 0.617188
vt 0.187500 0.392959
vt 0.187500 0.617188
vt 0.234375 0.392959
vt 0.234375 0.617188
vt 0.250000 0.392959
vt 0.250000 0.617188
vt 0.308005 1.000000
vt 0.303520 0.992782
vt 0.125000 0.290125
vt 0.140625 0.290125
vt 0.140625 0.390625
vt 0.125000 0.390625
vt 0.187500 0.290125
vt 0.187500 0.390625
vt 0.234375 0.290125
vt 0.234375 0.390625
vt 0.250000 0.290125
vt 0.250000 0.390625
vt 0.391792 0.680282
vt 0.387308 0.687500
vt 0.656250 0.242188
vt 0.671875 0.242188
vt 0.671875 0.338822
vt 0.656250 0.338822
vt 0.718750 0.242188
vt 0.718750 0.338822
vt 0.765625 0.242188
vt 0.765625 0.338822
vt 0.781250 0.242188
vt 0.781250 0.338822
vt 0.074808 1.000000
vt 0.079292 0.992782
vt 0.016214 0.828125
vt 0.016214 0.812500
vt 0.249412 0.812500
vt 0.249412 0.828125
vt 0.016214 0.765625
vt 0.249412 0.765625
vt 0.016214 0.718750
vt 0.249412 0.718750
vt 0.016213 0.703125
vt 0.249411 0.703125
vt 0.616020 0.680282
vt 0.620505 0.687500
vt 0.383980 0.859375
vt 0.608208 0.859375
vt 0.383980 0.812500
vt 0.608208 0.812500
vt 0.383980 0.765625
vt 0.608208 0.765625
vt 0.383980 0.750000
vt 0.608208 0.750000
vt 0.003743 0.928935
vt 0.010961 0.924451
vt 0.734375 1.000000
vt 0.718750 1.000000
vt 0.718750 0.899500
vt 0.734375 0.899500
vt 0.671875 1.000000
vt 0.671875 0.899500
vt 0.625000 1.000000
vt 0.625000 0.899500
vt 0.609375 1.000000
vt 0.609375 0.899500
vt 0.684352 0.611951
vt 0.691570 0.616435
vt 0.375000 0.315384
vt 0.359375 0.315384
vt 0.359375 0.218750
vt 0.375000 0.218750
vt 0.312500 0.315384
vt 0.312500 0.218750
vt 0.265625 0.315384
vt 0.265625 0.218750
vt 0.250000 0.315384
vt 0.250000 0.218750
vt 0.109375 0.617188
vt 0.109375 0.383990
vt 0.125000 0.383990
vt 0.062500 0.617188
vt 0.062500 0.383990
vt 0.015625 0.617188
vt 0.015625 0.383990
vt 0.000000 0.617188
vt 0.000000 0.383990
vt 0.609375 0.679688
vt 0.593750 0.679688
vt 0.593750 0.455459
vt 0.609375 0.455459
vt 0.546875 0.679688
vt 0.546875 0.455459
vt 0.500000 0.679688
vt 0.500000 0.455459
vt 0.484375 0.679688
vt 0.484375 0.455459
s 0
